<?xml version="1.0" standalone="no"?>
<!DOCTYPE svg PUBLIC "-//W3C//DTD SVG 20010904//EN"
 "http://www.w3.org/TR/2001/REC-SVG-20010904/DTD/svg10.dtd">
<svg version="1.0" xmlns="http://www.w3.org/2000/svg"
 width="769.000000pt" height="769.000000pt" viewBox="0 0 769.000000 769.000000"
 preserveAspectRatio="xMidYMid meet">
<metadata>
Created by potrace 1.11, written by Peter Selinger 2001-2013
</metadata>
<g transform="translate(0.000000,769.000000) scale(0.100000,-0.100000)"
fill="#000000" stroke="none">
<path d="M1918 5612 l-1917 -1247 0 -1095 0 -1095 1032 -670 c568 -368 1039
-670 1047 -669 9 0 408 256 888 568 830 540 874 567 895 553 841 -550 1726
-1121 1737 -1121 16 -1 120 65 1280 821 393 256 734 477 758 492 l42 26 0
1095 -1 1095 -1914 1245 c-1052 684 -1917 1246 -1922 1247 -4 1 -871 -559
-1925 -1245z m2763 352 c462 -301 838 -550 837 -555 -3 -8 -1642 -1077 -1665
-1086 -14 -5 -1697 1087 -1688 1095 7 7 1668 1090 1673 1091 2 1 382 -245 843
-545z m-1765 -1144 c450 -293 827 -538 836 -545 15 -10 -105 -91 -819 -556
-460 -299 -840 -545 -844 -547 -9 -4 -1689 1088 -1688 1097 1 13 1665 1089
1680 1087 8 -2 384 -243 835 -536z m3526 -1 c458 -298 837 -545 841 -549 4 -4
-370 -253 -833 -554 l-841 -548 -38 24 c-185 112 -1648 1075 -1643 1080 13 13
1667 1088 1674 1088 4 0 382 -244 840 -541z m-5088 -1270 l696 -453 0 -873 0
-874 -27 15 c-16 9 -392 253 -838 544 l-810 528 -3 877 -2 877 144 -94 c80
-52 458 -298 840 -547z m3396 84 l825 -538 3 -874 c2 -697 0 -872 -10 -868 -7
2 -362 231 -788 509 -426 277 -801 521 -832 541 l-58 37 0 875 c0 831 1 875
18 866 9 -6 388 -252 842 -548z"/>
</g>
</svg>
